<svg xmlns="http://www.w3.org/2000/svg" viewBox="0 -0.5 31 15" shape-rendering="crispEdges">
<metadata>Made with Pixels to Svg https://codepen.io/shshaw/pen/XbxvNj</metadata>
<path stroke="#787878" d="M6 0h1M5 1h1M24 1h1M4 2h1M25 2h1M3 3h1M26 3h1M2 4h1M27 4h1M1 5h1M28 5h1M0 6h1M29 6h1M0 7h30M0 8h1M29 8h1M0 9h1M29 9h1M0 10h1M29 10h1M0 11h1M29 11h1M0 12h1M29 12h1M0 13h1M29 13h1M0 14h1" />
<path stroke="#000000" d="M7 0h18M25 1h1M26 2h1M27 3h1M28 4h1M29 5h1M30 6h1M30 7h1M30 8h1M30 9h1M4 10h2M30 10h1M4 11h2M30 11h1M30 12h1M30 13h1M1 14h30" />
<path stroke="#ffffff" d="M6 1h1M5 2h1M4 3h1M3 4h1M2 5h3M1 6h28M1 8h1M1 9h1M1 10h1M1 11h1M1 12h1M1 13h1" />
<path stroke="#efefef" d="M7 1h5M6 2h5M5 3h5M4 4h5M5 5h3M2 8h5M2 9h5M2 10h2M6 10h1M2 11h2M6 11h1M2 12h5M2 13h5" />
<path stroke="#dfdfdf" d="M12 1h7M11 2h9M10 3h11M9 4h13M8 5h15M7 8h17M7 9h17M7 10h17M7 11h17M7 12h17M7 13h17" />
<path stroke="#bfbfbf" d="M19 1h5M20 2h5M21 3h5M22 4h5M23 5h5M24 8h5M24 9h5M24 10h5M24 11h5M24 12h5M24 13h5" />
</svg>