<svg xmlns="http://www.w3.org/2000/svg" viewBox="0 -0.5 32 31" shape-rendering="crispEdges">
<metadata>Made with Pixels to Svg https://codepen.io/shshaw/pen/XbxvNj</metadata>
<path stroke="#ffd43a" d="M24 0h6M22 1h3M29 1h2M19 2h4M30 2h2M16 3h5M31 3h1M14 4h6M31 4h1M12 5h7M31 5h1M10 6h8M31 6h1M9 7h8M31 7h1M8 8h8M30 8h1M7 9h8M30 9h1M6 10h8M5 11h8M4 12h8M3 13h8M2 14h8M2 15h7M1 16h7M1 17h6M0 18h7M0 19h6M0 20h6M0 21h6M0 22h5M0 23h5M0 24h5M0 25h4M1 26h3M1 27h3M1 28h4M10 28h4M2 29h10M4 30h6" />
<path stroke="#006bd5" d="M12 3h4M21 3h1M9 4h5M20 4h2M8 5h4M19 5h2M7 6h3M18 6h2M7 7h2M17 7h2M6 8h2M6 9h1M5 10h1M12 12h1M11 13h11M10 14h7M10 15h8M9 16h10M9 17h3M8 18h5M8 19h5M23 19h8M7 20h7M22 20h2M29 20h2M7 21h8M21 21h4M28 21h2M8 22h22M9 23h20M10 24h18M12 25h15M15 26h10M18 27h5" />
<path stroke="#377ef0" d="M22 4h3M21 5h6M20 6h8M19 7h10M19 8h6M26 8h3M20 9h4M27 9h3M21 10h3M28 10h2M22 11h3M28 11h2M22 12h4M28 12h3M22 13h9M17 14h14M18 15h13M19 16h12M24 20h5M25 21h3" />
<path stroke="#0052a4" d="M7 5h1M6 6h1M5 7h2M4 8h2M16 8h3M4 9h2M19 9h1M3 10h2M20 10h1M3 11h2M21 11h1M2 12h2M21 12h1M2 13h1M9 15h1M8 16h1M7 17h2M12 17h19M7 18h1M6 19h2M22 19h1M6 20h1M21 20h1M6 21h1M20 21h1M5 22h3M5 23h4M5 24h5M6 25h6M8 26h7M10 27h8M14 28h6" />
<path stroke="#74a3f2" d="M25 8h1M24 9h3M24 10h4M25 11h3M26 12h2" />
</svg>