<svg xmlns="http://www.w3.org/2000/svg" viewBox="0 -0.5 30 31" shape-rendering="crispEdges">
<metadata>Made with Pixels to Svg https://codepen.io/shshaw/pen/XbxvNj</metadata>
<path stroke="#000000" d="M12 0h11M11 1h1M11 2h1M16 2h5M24 2h1M11 3h1M21 3h1M24 3h1M5 4h1M11 4h1M21 4h1M24 4h1M4 5h2M11 5h1M21 5h1M24 5h1M4 6h1M11 6h1M21 6h1M24 6h1M1 7h2M5 7h2M11 7h1M21 7h1M24 7h1M0 8h1M3 8h2M7 8h1M11 8h1M21 8h1M24 8h1M0 9h1M7 9h1M11 9h1M15 9h6M24 9h1M0 10h1M11 10h1M24 10h1M0 11h1M11 11h1M24 11h1M1 12h1M4 12h1M6 12h1M11 12h1M18 12h4M24 12h1M2 13h2M5 13h1M24 13h1M8 14h5M24 14h1M6 15h2M5 16h1M14 16h12M5 17h1M26 17h1M6 18h4M18 18h7M27 18h1M10 19h1M19 19h1M21 19h1M23 19h1M25 19h1M28 19h1M10 20h1M22 20h1M24 20h1M26 20h1M29 20h1M9 21h1M29 21h1M9 22h1M21 22h8M10 23h2M12 24h1M15 25h2M14 26h1M17 26h1M13 27h1M16 27h1M18 27h1M15 28h1M19 28h1M19 29h1M18 30h1" />
</svg>