<svg xmlns="http://www.w3.org/2000/svg" viewBox="0 -0.5 29 27" shape-rendering="crispEdges">
<metadata>Made with Pixels to Svg https://codepen.io/shshaw/pen/XbxvNj</metadata>
<path stroke="#000000" d="M0 0h4M6 0h2M10 0h2M14 0h2M18 0h2M22 0h7M0 1h1M4 1h1M6 1h1M8 1h1M10 1h1M12 1h1M14 1h1M16 1h1M18 1h1M20 1h1M22 1h1M28 1h1M0 2h1M4 2h1M6 2h1M8 2h1M10 2h1M12 2h1M14 2h1M16 2h1M18 2h1M20 2h1M22 2h1M28 2h1M0 3h1M5 3h2M9 3h2M13 3h2M17 3h2M21 3h2M28 3h1M0 4h1M28 4h1M0 5h1M28 5h1M0 6h1M28 6h1M0 7h1M28 7h1M0 8h1M28 8h1M0 9h1M28 9h1M0 10h1M28 10h1M0 11h1M28 11h1M0 12h1M28 12h1M0 13h1M28 13h1M0 14h1M28 14h1M0 15h1M28 15h1M0 16h1M28 16h1M0 17h1M28 17h1M0 18h1M28 18h1M0 19h1M28 19h1M0 20h1M28 20h1M0 21h6M28 21h1M1 22h1M5 22h1M28 22h1M2 23h1M5 23h1M28 23h1M3 24h1M5 24h1M28 24h1M4 25h2M28 25h1M5 26h24" />
<path stroke="#efefef" d="M1 1h3M7 1h1M11 1h1M15 1h1M19 1h1M23 1h5M1 2h3M7 2h1M11 2h1M15 2h1M19 2h1M23 2h5M1 3h4M7 3h2M11 3h2M15 3h2M19 3h2M23 3h5M1 4h5M7 4h21M1 5h5M7 5h21M1 7h5M7 7h21M1 8h5M7 8h21M1 9h5M7 9h21M1 11h5M7 11h21M1 12h5M7 12h21M1 13h5M7 13h21M1 15h5M7 15h21M1 16h5M7 16h21M1 17h5M7 17h21M1 19h5M7 19h21M1 20h5M7 20h21M7 21h21M7 23h21M7 24h21M7 25h21" />
<path stroke="#f8d1aa" d="M6 4h1M6 5h1M6 6h1M6 7h1M6 8h1M6 9h1M6 10h1M6 11h1M6 12h1M6 13h1M6 14h1M6 15h1M6 16h1M6 17h1M6 18h1M6 19h1M6 20h1M6 21h1M6 22h1M6 23h1M6 24h1M6 25h1" />
<path stroke="#d0d2fa" d="M1 6h5M7 6h21M1 10h5M7 10h21M1 14h5M7 14h21M1 18h5M7 18h21M7 22h21" />
<path stroke="#cecece" d="M2 22h3M3 23h2M4 24h1" />
</svg>