<svg xmlns="http://www.w3.org/2000/svg" viewBox="0 -0.5 23 29" shape-rendering="crispEdges">
<metadata>Made with Pixels to Svg https://codepen.io/shshaw/pen/XbxvNj</metadata>
<path stroke="#000000" d="M0 0h17M0 1h1M16 1h2M0 2h1M16 2h1M18 2h1M0 3h1M16 3h1M19 3h1M0 4h1M16 4h1M20 4h1M0 5h1M16 5h1M21 5h1M0 6h1M16 6h7M0 7h1M22 7h1M0 8h1M22 8h1M0 9h1M22 9h1M0 10h1M22 10h1M0 11h1M22 11h1M0 12h1M22 12h1M0 13h1M22 13h1M0 14h1M22 14h1M0 15h1M22 15h1M0 16h1M22 16h1M0 17h1M22 17h1M0 18h1M22 18h1M0 19h1M22 19h1M0 20h1M22 20h1M0 21h1M22 21h1M0 22h1M22 22h1M0 23h1M22 23h1M0 24h1M22 24h1M0 25h1M22 25h1M0 26h1M22 26h1M0 27h1M22 27h1M0 28h23" />
<path stroke="#efefef" d="M1 1h15M1 2h15M1 3h15M1 4h15M1 5h15M1 6h15M1 7h21M1 8h21M1 9h21M1 10h21M1 11h21M1 12h21M1 13h21M1 14h21M1 15h21M1 16h21M1 17h21M1 18h21M1 19h21M1 20h21M1 21h21M1 22h21M1 23h21M1 24h21M1 25h21M1 26h21M1 27h21" />
<path stroke="#dfdfdf" d="M17 2h1M17 3h2M17 4h3M17 5h4" />
</svg>