<svg xmlns="http://www.w3.org/2000/svg" viewBox="0 -0.5 30 30" shape-rendering="crispEdges">
<metadata>Made with Pixels to Svg https://codepen.io/shshaw/pen/XbxvNj</metadata>
<path stroke="#000000" d="M11 0h8M8 1h3M19 1h3M7 2h1M22 2h1M5 3h2M23 3h2M4 4h1M25 4h1M3 5h1M26 5h1M3 6h1M26 6h1M2 7h1M27 7h1M1 8h1M10 8h9M28 8h1M1 9h1M8 9h14M28 9h1M1 10h1M6 10h18M28 10h1M0 11h1M6 11h4M19 11h6M29 11h1M0 12h1M22 12h3M29 12h1M0 13h1M29 13h1M0 14h1M8 14h11M29 14h1M0 15h1M6 15h16M29 15h1M0 16h1M6 16h4M17 16h6M29 16h1M0 17h1M20 17h3M29 17h1M0 18h1M29 18h1M1 19h1M9 19h10M28 19h1M1 20h1M7 20h14M28 20h1M1 21h1M7 21h3M18 21h4M28 21h1M2 22h1M20 22h2M27 22h1M3 23h1M26 23h1M3 24h1M26 24h1M4 25h1M25 25h1M5 26h2M23 26h2M7 27h1M22 27h1M8 28h3M19 28h3M11 29h8" />
<path stroke="#4ecb62" d="M11 1h8M8 2h14M7 3h16M5 4h20M4 5h22M4 6h22M3 7h24M2 8h8M19 8h9M2 9h6M22 9h6M2 10h4M24 10h4M1 11h5M10 11h9M25 11h4M1 12h21M25 12h4M1 13h28M1 14h7M19 14h10M1 15h5M22 15h7M1 16h5M10 16h7M23 16h6M1 17h19M23 17h6M1 18h28M2 19h7M19 19h9M2 20h5M21 20h7M2 21h5M10 21h8M22 21h6M3 22h17M22 22h5M4 23h22M4 24h22M5 25h20M7 26h16M8 27h14M11 28h8" />
</svg>