<svg xmlns="http://www.w3.org/2000/svg" viewBox="0 -0.5 21 31" shape-rendering="crispEdges">
<metadata>Made with Pixels to Svg https://codepen.io/shshaw/pen/XbxvNj</metadata>
<path stroke="#000000" d="M8 0h4M7 1h2M12 1h1M7 2h1M9 2h2M13 2h3M7 3h1M9 3h1M11 3h1M13 3h1M16 3h2M7 4h2M11 4h1M13 4h1M18 4h2M0 5h1M11 5h2M20 5h1M0 6h1M20 6h1M0 7h1M20 7h1M0 8h1M20 8h1M0 9h1M20 9h1M1 10h2M18 10h3M1 11h1M3 11h2M16 11h2M19 11h1M1 12h1M5 12h11M19 12h1M1 13h1M19 13h1M1 14h1M19 14h1M1 15h1M19 15h1M1 16h1M19 16h1M1 17h1M19 17h1M1 18h1M19 18h1M1 19h1M19 19h1M1 20h1M19 20h1M1 21h1M19 21h1M1 22h1M19 22h1M1 23h1M19 23h1M1 24h1M19 24h1M1 25h1M19 25h1M1 26h1M19 26h1M1 27h1M19 27h1M2 28h2M17 28h2M4 29h2M15 29h2M6 30h9" />
<path stroke="#dfdfdf" d="M9 1h2M11 2h1M12 3h1M14 3h2M12 4h1M15 4h3M16 5h4M16 6h2M18 7h2M16 8h4M13 9h7M13 10h5M13 11h3M11 13h4M11 14h2M14 14h1M4 15h1M8 15h1M11 15h1M14 15h1M4 16h1M8 16h1M11 16h1M14 16h1M4 17h1M8 17h1M11 17h1M14 17h1M4 18h1M8 18h1M11 18h1M14 18h1M4 19h1M8 19h1M11 19h1M14 19h1M4 20h1M8 20h1M11 20h1M14 20h1M4 21h1M8 21h1M11 21h1M14 21h1M4 22h1M8 22h1M11 22h1M14 22h1M4 23h1M8 23h1M11 23h1M14 23h1M4 24h1M8 24h1M11 24h1M14 24h1M8 25h1M11 25h1M14 25h1M8 26h1M11 26h1M14 26h1M11 27h2M14 27h1M11 28h4M11 29h4" />
<path stroke="#ffffff" d="M11 1h1M12 2h1M5 3h2M4 4h3M3 5h7M3 6h6M2 7h1M5 7h3M2 8h3M2 9h6M3 10h5M5 11h3M4 12h1M4 13h3M5 14h2M5 15h2M5 16h2M5 17h2M5 18h2M5 19h2M5 20h2M5 21h2M5 22h2M5 23h2M5 24h2M5 25h2M4 26h3M4 27h3M4 28h3M6 29h1" />
<path stroke="#787878" d="M5 2h2M3 3h2M1 4h2M18 6h2M16 7h2M13 8h3M18 11h1M18 12h1M18 13h1M17 14h2M16 15h1M18 15h1M16 16h1M18 16h1M16 17h1M18 17h1M16 18h1M18 18h1M16 19h1M18 19h1M16 20h1M18 20h1M16 21h1M18 21h1M16 22h1M18 22h1M16 23h1M18 23h1M16 24h1M18 24h1M17 25h2M18 26h1M18 27h1" />
<path stroke="#bfbfbf" d="M8 2h1M8 3h1M1 6h2M3 7h2M5 8h3M16 12h2M15 13h3M15 14h2M13 15h1M15 15h1M13 16h1M15 16h1M13 17h1M15 17h1M13 18h1M15 18h1M13 19h1M15 19h1M13 20h1M15 20h1M13 21h1M15 21h1M13 22h1M15 22h1M13 23h1M15 23h1M13 24h1M15 24h1M13 25h1M15 25h2M13 26h1M15 26h3M15 27h3M15 28h2" />
<path stroke="#efefef" d="M10 3h1M3 4h1M9 4h2M1 5h2M10 5h1M9 6h3M1 7h1M8 7h8M1 8h1M1 9h1M8 9h5M8 10h5M2 11h1M8 11h5M2 12h2M2 13h2M7 13h4M2 14h2M7 14h1M9 14h2M2 15h1M9 15h2M2 16h1M9 16h2M2 17h1M9 17h2M2 18h1M9 18h2M2 19h1M9 19h2M2 20h1M9 20h2M2 21h1M9 21h2M2 22h1M9 22h2M2 23h1M9 23h2M2 24h1M9 24h2M2 25h2M9 25h2M2 26h2M9 26h2M2 27h2M7 27h1M9 27h2M7 28h4M7 29h4" />
<path stroke="#adadad" d="M14 4h1M13 5h3M12 6h4M8 8h5M4 14h1M8 14h1M13 14h1M3 15h1M7 15h1M12 15h1M17 15h1M3 16h1M7 16h1M12 16h1M17 16h1M3 17h1M7 17h1M12 17h1M17 17h1M3 18h1M7 18h1M12 18h1M17 18h1M3 19h1M7 19h1M12 19h1M17 19h1M3 20h1M7 20h1M12 20h1M17 20h1M3 21h1M7 21h1M12 21h1M17 21h1M3 22h1M7 22h1M12 22h1M17 22h1M3 23h1M7 23h1M12 23h1M17 23h1M3 24h1M7 24h1M12 24h1M17 24h1M4 25h1M7 25h1M12 25h1M7 26h1M12 26h1M8 27h1M13 27h1" />
</svg>